<?xml version="1.0" encoding="utf-8"?>
<svg viewBox="0 0 936 166" fill="none" xmlns="http://www.w3.org/2000/svg">
  <path d="M 174.608 111.985 C 174.259 110.671 173.695 109.424 172.938 108.294 C 173.101 107.7 173.224 107.095 173.307 106.484 C 173.844 102.609 172.501 99.062 169.969 96.317 C 168.598 94.818 167.128 93.828 165.571 93.22 C 166.593 88.848 167.11 84.373 167.112 79.883 C 167.112 77.832 166.996 75.823 166.802 73.844 C 166.7 72.856 166.578 71.87 166.434 70.887 C 165.988 67.987 165.327 65.123 164.456 62.321 C 163.884 60.48 163.224 58.668 162.475 56.891 C 161.354 54.26 160.045 51.713 158.558 49.27 C 157.583 47.644 156.521 46.072 155.376 44.561 C 154.815 43.797 154.231 43.052 153.623 42.326 C 151.821 40.137 149.864 38.081 147.765 36.175 C 147.068 35.534 146.352 34.915 145.616 34.319 C 144.892 33.715 144.151 33.13 143.396 32.566 C 141.875 31.434 140.304 30.372 138.687 29.384 C 129.751 23.957 119.271 20.844 108.071 20.844 C 75.46 20.844 49.029 47.276 49.029 79.885 C 49.028 84.432 49.554 88.963 50.598 93.388 C 49.198 93.996 47.856 94.944 46.611 96.316 C 44.08 99.059 42.735 102.594 43.273 106.469 C 43.355 107.084 43.477 107.694 43.641 108.293 C 42.885 109.423 42.321 110.671 41.972 111.985 C 41.194 114.943 41.45 117.61 42.439 119.947 C 41.364 123.001 41.632 126.253 43.032 129.081 C 44.05 131.146 45.508 132.744 47.304 134.172 C 49.439 135.87 52.112 137.312 55.336 138.696 C 59.182 140.336 63.878 141.877 66.013 142.443 C 71.529 143.871 76.817 144.776 82.177 144.82 C 89.814 144.891 96.39 143.095 101.099 138.5 C 103.412 138.783 105.74 138.925 108.071 138.924 C 110.533 138.919 112.992 138.764 115.436 138.46 C 120.133 143.085 126.735 144.897 134.399 144.824 C 139.759 144.781 145.047 143.876 150.549 142.446 C 152.698 141.881 157.391 140.339 161.24 138.699 C 164.464 137.313 167.137 135.871 169.286 134.176 C 171.069 132.747 172.525 131.15 173.543 129.085 C 174.958 126.257 175.212 123.004 174.152 119.95 C 175.131 117.613 175.386 114.94 174.608 111.985 Z M 169.135 119.749 C 170.219 121.805 170.288 124.128 169.332 126.292 C 167.883 129.571 164.281 132.155 157.286 134.928 C 152.937 136.653 148.954 137.756 148.919 137.766 C 143.166 139.258 137.963 140.016 133.459 140.016 C 126.001 140.016 120.451 137.958 116.931 133.893 C 110.979 134.907 104.902 134.942 98.939 133.996 C 95.415 137.993 89.896 140.016 82.501 140.016 C 77.996 140.016 72.794 139.258 67.04 137.766 C 67.005 137.756 63.024 136.653 58.673 134.928 C 51.679 132.155 48.076 129.573 46.627 126.292 C 45.671 124.128 45.74 121.805 46.824 119.749 C 46.924 119.558 47.031 119.372 47.146 119.191 C 46.497 118.216 46.061 117.114 45.868 115.958 C 45.675 114.803 45.729 113.619 46.026 112.486 C 46.456 110.85 47.345 109.489 48.553 108.512 C 47.971 107.556 47.589 106.493 47.431 105.385 C 47.083 102.977 47.883 100.573 49.681 98.612 C 51.082 97.086 53.061 96.246 55.253 96.246 L 55.311 96.246 C 53.659 90.949 52.821 85.432 52.826 79.883 C 52.826 49.62 77.361 25.084 107.628 25.084 C 137.896 25.084 162.43 49.617 162.43 79.883 C 162.434 85.447 161.591 90.978 159.928 96.288 C 160.192 96.262 160.451 96.249 160.706 96.248 C 162.898 96.248 164.878 97.088 166.278 98.614 C 168.076 100.573 168.876 102.979 168.528 105.387 C 168.37 106.495 167.988 107.558 167.407 108.514 C 168.614 109.491 169.504 110.852 169.934 112.488 C 170.231 113.621 170.284 114.805 170.091 115.961 C 169.899 117.116 169.463 118.218 168.813 119.193 C 168.928 119.372 169.037 119.558 169.135 119.749 Z" fill="white"/>
  <path d="M 168.813 119.193 C 169.463 118.218 169.899 117.116 170.092 115.961 C 170.284 114.805 170.231 113.621 169.934 112.488 C 169.503 110.852 168.613 109.491 167.407 108.514 C 167.988 107.558 168.37 106.495 168.528 105.387 C 168.876 102.979 168.076 100.575 166.278 98.614 C 164.878 97.088 162.898 96.248 160.706 96.248 C 160.451 96.248 160.192 96.262 159.928 96.288 C 161.589 90.978 162.431 85.447 162.425 79.884 C 162.425 49.62 137.891 25.085 107.627 25.085 C 77.361 25.085 52.824 49.618 52.824 79.884 C 52.819 85.433 53.657 90.951 55.309 96.248 L 55.251 96.248 C 53.059 96.248 51.08 97.087 49.68 98.612 C 47.881 100.571 47.081 102.978 47.429 105.386 C 47.588 106.494 47.97 107.558 48.551 108.513 C 47.344 109.49 46.454 110.85 46.024 112.486 C 45.727 113.621 45.673 114.804 45.867 115.96 C 46.06 117.116 46.496 118.218 47.145 119.193 C 47.03 119.373 46.924 119.56 46.823 119.751 C 45.74 121.807 45.67 124.13 46.627 126.294 C 48.077 129.573 51.678 132.157 58.673 134.93 C 63.022 136.655 67.005 137.758 67.04 137.768 C 72.793 139.26 77.996 140.018 82.5 140.018 C 89.896 140.018 95.415 137.995 98.939 133.998 C 104.902 134.944 110.979 134.909 116.931 133.895 C 120.451 137.96 126.001 140.018 133.459 140.018 C 137.963 140.018 143.166 139.26 148.918 137.768 C 148.954 137.758 152.935 136.655 157.286 134.93 C 164.281 132.157 167.883 129.573 169.332 126.294 C 170.288 124.13 170.219 121.807 169.135 119.751 C 169.037 119.558 168.928 119.371 168.813 119.193 Z M 96.417 127.74 C 96.114 128.271 95.789 128.789 95.443 129.293 C 94.532 130.626 93.334 131.646 91.943 132.403 C 89.284 133.853 85.919 134.359 82.5 134.359 C 77.099 134.359 71.563 133.096 68.46 132.291 C 68.307 132.251 49.439 126.922 51.828 122.385 C 52.23 121.622 52.891 121.317 53.724 121.317 C 57.088 121.317 63.212 126.326 65.844 126.326 C 66.433 126.326 66.848 126.076 67.017 125.465 C 68.139 121.442 49.967 119.751 51.498 113.925 C 51.767 112.894 52.5 112.475 53.53 112.475 C 57.977 112.475 67.958 120.296 70.045 120.296 C 70.205 120.296 70.32 120.248 70.382 120.15 C 70.391 120.135 70.4 120.12 70.409 120.105 C 71.389 118.487 70.826 117.311 64.114 113.2 L 63.47 112.807 C 56.083 108.337 50.899 105.647 53.848 102.437 C 54.187 102.067 54.668 101.903 55.252 101.903 C 55.945 101.903 56.783 102.134 57.707 102.523 C 61.608 104.168 67.014 108.655 69.273 110.611 C 69.628 110.92 69.981 111.232 70.332 111.546 C 70.332 111.546 73.191 114.519 74.92 114.519 C 75.318 114.519 75.656 114.362 75.885 113.975 C 77.111 111.907 64.496 102.348 63.785 98.404 C 63.303 95.731 64.123 94.378 65.641 94.378 C 66.363 94.378 67.243 94.685 68.215 95.302 C 71.23 97.215 77.052 107.219 79.183 111.111 C 79.898 112.415 81.118 112.966 82.217 112.966 C 84.398 112.966 86.102 110.799 82.417 108.044 C 76.877 103.899 78.821 97.124 81.465 96.707 C 81.578 96.689 81.692 96.68 81.805 96.68 C 84.209 96.68 85.27 100.823 85.27 100.823 C 85.27 100.823 88.378 108.629 93.718 113.965 C 98.563 118.808 99.24 122.782 96.417 127.74 Z M 113.684 128.655 L 113.407 128.688 L 112.935 128.741 C 112.687 128.767 112.438 128.792 112.188 128.815 L 111.945 128.837 L 111.723 128.856 L 111.408 128.881 L 111.059 128.906 L 110.712 128.929 L 110.635 128.934 C 110.544 128.939 110.453 128.945 110.361 128.95 L 110.245 128.956 C 110.137 128.962 110.03 128.967 109.921 128.972 L 109.544 128.988 L 109.202 128.999 L 108.974 129.006 L 108.858 129.006 C 108.787 129.006 108.716 129.01 108.645 129.011 L 108.532 129.011 C 108.46 129.011 108.39 129.011 108.318 129.014 L 108.028 129.018 L 107.623 129.018 C 107.304 129.018 106.987 129.014 106.67 129.008 L 106.413 129.002 C 106.34 129.002 106.267 128.999 106.195 128.996 L 105.922 128.988 L 105.585 128.975 L 105.28 128.962 L 105.201 128.959 L 104.912 128.944 C 104.83 128.939 104.751 128.935 104.67 128.929 L 104.483 128.918 C 104.248 128.904 104.012 128.887 103.777 128.869 L 103.53 128.849 C 103.427 128.841 103.323 128.832 103.22 128.822 C 103.099 128.812 102.977 128.8 102.856 128.789 C 102.653 128.77 102.45 128.749 102.247 128.727 L 102.237 128.727 C 105.201 122.116 103.702 115.942 97.714 109.959 C 93.786 106.036 91.174 100.245 90.632 98.973 C 89.534 95.209 86.631 91.024 81.808 91.024 C 81.4 91.024 80.993 91.057 80.591 91.12 C 78.478 91.453 76.631 92.669 75.314 94.499 C 73.89 92.728 72.506 91.32 71.254 90.525 C 69.367 89.329 67.484 88.722 65.65 88.722 C 63.36 88.722 61.314 89.662 59.887 91.367 L 59.851 91.411 C 59.824 91.299 59.798 91.187 59.771 91.074 L 59.768 91.059 C 59.496 89.898 59.268 88.728 59.084 87.549 C 59.084 87.542 59.084 87.534 59.081 87.526 C 59.066 87.437 59.053 87.348 59.04 87.259 C 59 86.996 58.962 86.732 58.928 86.468 C 58.912 86.348 58.895 86.228 58.88 86.108 L 58.836 85.748 C 58.822 85.628 58.81 85.519 58.797 85.405 L 58.793 85.377 C 58.742 84.91 58.696 84.443 58.657 83.975 L 58.643 83.795 L 58.62 83.489 C 58.614 83.405 58.607 83.321 58.603 83.237 C 58.603 83.217 58.599 83.197 58.599 83.178 C 58.582 82.944 58.568 82.708 58.557 82.473 C 58.55 82.35 58.544 82.228 58.538 82.105 L 58.525 81.784 L 58.522 81.686 L 58.512 81.39 L 58.505 81.138 C 58.505 81.037 58.5 80.937 58.499 80.836 C 58.497 80.736 58.494 80.625 58.494 80.519 C 58.492 80.413 58.494 80.308 58.49 80.202 C 58.488 80.096 58.49 79.99 58.49 79.884 C 58.49 52.745 80.493 30.743 107.634 30.743 C 134.775 30.743 156.777 52.745 156.777 79.884 L 156.777 80.519 C 156.777 80.625 156.774 80.731 156.772 80.836 C 156.772 80.924 156.768 81.01 156.765 81.099 C 156.765 81.177 156.762 81.255 156.759 81.33 C 156.759 81.43 156.753 81.529 156.75 81.628 L 156.75 81.636 L 156.737 81.98 C 156.732 82.081 156.728 82.182 156.723 82.282 L 156.72 82.354 L 156.702 82.675 C 156.664 83.364 156.611 84.052 156.546 84.74 L 156.546 84.748 C 156.535 84.861 156.524 84.974 156.512 85.087 L 156.482 85.353 L 156.425 85.875 L 156.392 86.138 L 156.351 86.449 C 156.336 86.562 156.321 86.675 156.304 86.788 C 156.287 86.914 156.268 87.04 156.25 87.166 L 156.205 87.463 L 156.152 87.8 C 156.134 87.913 156.114 88.024 156.093 88.136 C 156.072 88.248 156.055 88.359 156.036 88.471 C 155.997 88.694 155.956 88.917 155.913 89.139 C 155.848 89.472 155.781 89.804 155.712 90.136 L 155.641 90.465 C 155.617 90.574 155.592 90.685 155.567 90.794 C 154.184 89.45 152.352 88.718 150.333 88.718 C 148.499 88.718 146.614 89.324 144.728 90.521 C 143.477 91.316 142.094 92.724 140.669 94.494 C 139.349 92.664 137.503 91.449 135.391 91.116 C 134.989 91.052 134.581 91.02 134.174 91.02 C 129.35 91.02 126.448 95.204 125.35 98.968 C 124.806 100.24 122.192 106.032 118.262 109.96 C 112.277 115.924 110.768 122.071 113.684 128.655 Z M 164.419 115.421 L 164.399 115.478 C 164.35 115.609 164.293 115.736 164.229 115.859 C 164.18 115.95 164.127 116.038 164.07 116.123 C 163.962 116.285 163.843 116.439 163.714 116.585 C 163.685 116.618 163.656 116.652 163.622 116.685 C 163.576 116.735 163.528 116.784 163.48 116.832 C 162.607 117.697 161.276 118.456 159.772 119.152 C 159.601 119.229 159.428 119.306 159.254 119.384 L 159.08 119.461 C 158.964 119.512 158.848 119.563 158.726 119.613 C 158.61 119.663 158.489 119.714 158.369 119.763 L 158.007 119.912 C 157.161 120.261 156.294 120.593 155.448 120.92 L 155.086 121.061 L 154.729 121.201 C 154.491 121.293 154.256 121.386 154.025 121.479 L 153.681 121.618 L 153.343 121.756 L 153.177 121.826 C 153.066 121.872 152.957 121.918 152.849 121.964 C 150.361 123.032 148.571 124.118 148.947 125.466 C 148.957 125.504 148.969 125.54 148.982 125.576 C 149.016 125.676 149.062 125.77 149.119 125.858 C 149.153 125.911 149.192 125.961 149.235 126.006 C 149.678 126.466 150.482 126.393 151.497 126.028 C 151.64 125.976 151.782 125.921 151.923 125.864 L 152.011 125.828 C 152.243 125.729 152.489 125.619 152.74 125.5 C 152.802 125.47 152.866 125.442 152.93 125.408 C 154.171 124.802 155.577 123.984 156.973 123.241 C 157.531 122.939 158.097 122.653 158.67 122.382 C 159.992 121.76 161.234 121.319 162.233 121.319 C 162.702 121.319 163.115 121.415 163.46 121.635 L 163.518 121.673 C 163.734 121.826 163.916 122.022 164.052 122.249 C 164.078 122.292 164.104 122.338 164.129 122.385 C 164.623 123.322 164.21 124.292 163.243 125.244 C 162.315 126.157 160.872 127.053 159.231 127.882 C 159.109 127.943 158.987 128.005 158.863 128.065 C 153.981 130.463 147.586 132.269 147.498 132.292 C 145.794 132.733 143.357 133.313 140.611 133.747 L 140.205 133.81 L 140.139 133.82 C 139.831 133.867 139.523 133.91 139.214 133.95 C 138.901 133.992 138.585 134.031 138.266 134.066 L 138.208 134.073 C 137.054 134.206 135.895 134.294 134.734 134.336 L 134.717 134.336 C 134.297 134.351 133.877 134.359 133.457 134.359 L 132.973 134.359 C 132.332 134.35 131.693 134.321 131.054 134.272 C 131.039 134.272 131.023 134.272 131.008 134.268 C 130.779 134.251 130.551 134.229 130.322 134.204 C 130.086 134.179 129.85 134.15 129.614 134.118 C 129.459 134.098 129.305 134.074 129.151 134.049 C 128.994 134.024 128.837 133.998 128.681 133.97 L 128.467 133.93 L 128.451 133.927 C 128.226 133.884 128.002 133.837 127.779 133.785 C 127.65 133.756 127.521 133.727 127.393 133.692 L 127.316 133.673 C 127.252 133.657 127.191 133.64 127.128 133.624 L 127.093 133.614 L 126.894 133.556 C 126.821 133.536 126.748 133.514 126.676 133.493 L 126.65 133.485 L 126.462 133.428 C 126.39 133.406 126.319 133.382 126.248 133.359 L 126.075 133.301 L 125.947 133.256 C 125.824 133.213 125.701 133.168 125.58 133.122 L 125.464 133.076 L 125.369 133.039 C 125.185 132.965 125.002 132.888 124.821 132.806 L 124.701 132.748 L 124.681 132.739 C 124.638 132.719 124.596 132.699 124.553 132.681 C 124.47 132.641 124.387 132.6 124.304 132.557 L 124.279 132.545 L 124.16 132.482 C 123.948 132.371 123.74 132.253 123.537 132.128 L 123.425 132.059 C 123.369 132.025 123.314 131.989 123.259 131.953 L 123.114 131.857 L 122.958 131.75 L 122.864 131.683 C 122.766 131.613 122.669 131.54 122.574 131.466 L 122.423 131.349 C 122.363 131.301 122.303 131.252 122.244 131.202 C 122.194 131.161 122.146 131.118 122.097 131.075 L 122.093 131.072 C 122.041 131.026 121.989 130.98 121.938 130.932 C 121.888 130.886 121.837 130.84 121.788 130.792 L 121.782 130.787 C 121.73 130.737 121.679 130.687 121.63 130.636 C 121.58 130.586 121.528 130.535 121.48 130.483 C 121.431 130.432 121.381 130.379 121.333 130.326 C 121.285 130.272 121.241 130.224 121.196 130.171 L 121.181 130.154 C 121.137 130.103 121.093 130.052 121.051 129.999 C 120.958 129.889 120.868 129.775 120.781 129.659 C 120.693 129.542 120.608 129.423 120.524 129.302 L 120.444 129.182 C 120.338 129.027 120.234 128.87 120.134 128.71 C 120.058 128.596 119.985 128.48 119.914 128.363 C 119.868 128.289 119.824 128.216 119.78 128.143 L 119.761 128.113 C 119.719 128.042 119.678 127.972 119.638 127.901 C 119.614 127.863 119.592 127.825 119.571 127.785 C 119.55 127.745 119.525 127.704 119.503 127.663 L 119.466 127.599 L 119.443 127.557 C 119.4 127.48 119.357 127.401 119.315 127.322 C 119.296 127.287 119.277 127.252 119.257 127.218 L 119.199 127.106 L 119.141 126.995 C 118.995 126.703 118.857 126.408 118.727 126.108 L 118.681 125.999 C 118.651 125.925 118.623 125.853 118.594 125.781 C 118.579 125.746 118.565 125.711 118.553 125.676 C 118.483 125.497 118.418 125.315 118.359 125.132 C 118.337 125.067 118.317 125.003 118.297 124.938 C 118.251 124.79 118.208 124.642 118.171 124.492 C 118.125 124.318 118.084 124.142 118.05 123.965 C 118.042 123.929 118.035 123.894 118.029 123.859 C 117.996 123.686 117.968 123.512 117.947 123.337 C 117.942 123.302 117.938 123.268 117.934 123.234 L 117.923 123.129 C 117.909 122.991 117.898 122.853 117.891 122.715 C 117.891 122.68 117.888 122.645 117.887 122.611 C 117.884 122.542 117.882 122.474 117.882 122.405 C 117.845 119.634 119.247 116.97 122.245 113.974 C 127.585 108.639 130.693 100.833 130.693 100.833 C 130.693 100.833 130.777 100.505 130.951 100.034 C 130.975 99.968 131 99.901 131.029 99.83 C 131.13 99.566 131.244 99.307 131.37 99.054 L 131.396 99.005 C 131.503 98.79 131.621 98.58 131.748 98.376 C 131.778 98.328 131.807 98.282 131.84 98.234 C 131.935 98.094 132.036 97.956 132.141 97.823 C 132.199 97.751 132.262 97.68 132.325 97.611 C 132.35 97.583 132.375 97.556 132.401 97.53 C 132.711 97.211 133.064 96.95 133.464 96.811 L 133.515 96.794 C 133.548 96.783 133.582 96.773 133.617 96.763 C 133.656 96.753 133.696 96.744 133.736 96.735 L 133.755 96.731 C 133.84 96.714 133.925 96.703 134.011 96.698 L 134.019 96.698 C 134.063 96.698 134.109 96.693 134.155 96.693 C 134.212 96.693 134.266 96.693 134.323 96.699 C 134.381 96.704 134.439 96.711 134.497 96.72 C 134.978 96.796 135.436 97.083 135.83 97.525 C 135.98 97.694 136.115 97.875 136.233 98.067 C 136.311 98.192 136.384 98.323 136.453 98.462 C 136.481 98.52 136.508 98.573 136.534 98.63 C 136.601 98.777 136.662 98.926 136.715 99.078 C 136.842 99.435 136.937 99.802 137 100.175 C 137.055 100.503 137.087 100.833 137.097 101.165 C 137.103 101.342 137.103 101.521 137.097 101.702 C 137.062 102.544 136.89 103.375 136.587 104.161 C 136.56 104.233 136.529 104.306 136.5 104.378 C 136.44 104.525 136.375 104.669 136.304 104.81 C 136.252 104.917 136.197 105.024 136.137 105.131 C 136.098 105.202 136.057 105.274 136.016 105.345 C 135.912 105.523 135.799 105.699 135.678 105.875 L 135.605 105.98 C 135.318 106.379 134.999 106.754 134.65 107.1 C 134.306 107.445 133.938 107.763 133.548 108.054 C 133.158 108.343 132.792 108.663 132.453 109.011 C 131.479 110.034 131.252 110.937 131.471 111.621 C 131.506 111.728 131.552 111.833 131.608 111.931 C 131.673 112.044 131.751 112.148 131.839 112.243 L 131.874 112.278 L 131.909 112.313 C 131.944 112.347 131.981 112.38 132.02 112.412 L 132.059 112.444 C 132.153 112.516 132.253 112.581 132.357 112.638 C 132.388 112.654 132.415 112.671 132.449 112.686 C 132.562 112.741 132.678 112.789 132.798 112.827 C 132.831 112.838 132.864 112.848 132.897 112.858 L 132.94 112.869 L 132.998 112.885 L 133.048 112.897 L 133.102 112.909 L 133.156 112.92 L 133.207 112.928 C 133.245 112.934 133.284 112.941 133.323 112.945 L 133.36 112.951 L 133.427 112.958 L 133.469 112.962 L 133.537 112.967 L 133.577 112.967 L 133.648 112.971 L 133.873 112.971 L 133.937 112.967 L 134.011 112.962 L 134.101 112.954 L 134.185 112.944 C 134.205 112.944 134.224 112.939 134.244 112.935 C 134.503 112.897 134.757 112.829 135 112.73 L 135.103 112.687 C 135.161 112.661 135.219 112.635 135.273 112.606 C 135.387 112.549 135.498 112.484 135.604 112.414 C 135.752 112.316 135.893 112.208 136.024 112.088 C 136.055 112.06 136.085 112.03 136.115 112.001 C 136.13 111.987 136.144 111.973 136.158 111.958 C 136.187 111.929 136.216 111.9 136.245 111.868 C 136.452 111.64 136.632 111.389 136.78 111.118 C 138.049 108.81 139.379 106.537 140.768 104.301 L 140.959 103.995 L 141.151 103.69 C 141.247 103.535 141.345 103.382 141.441 103.231 L 141.538 103.079 C 141.861 102.573 142.19 102.071 142.523 101.572 L 142.721 101.276 C 143.118 100.688 143.514 100.116 143.906 99.573 L 144.101 99.304 C 144.528 98.716 144.972 98.14 145.433 97.578 L 145.616 97.359 C 145.646 97.323 145.674 97.286 145.707 97.251 C 145.768 97.18 145.828 97.111 145.887 97.043 C 145.917 97.009 145.945 96.975 145.976 96.941 L 146.15 96.746 L 146.237 96.65 C 146.325 96.556 146.41 96.466 146.494 96.38 C 146.553 96.322 146.607 96.264 146.662 96.209 C 146.991 95.873 147.354 95.572 147.745 95.311 L 147.835 95.252 C 147.922 95.194 148.012 95.139 148.105 95.09 C 149.637 94.22 150.906 94.156 151.637 94.887 C 152.079 95.329 152.325 96.062 152.311 97.083 C 152.311 97.128 152.311 97.173 152.308 97.22 L 152.308 97.27 C 152.308 97.316 152.304 97.363 152.3 97.41 C 152.3 97.469 152.293 97.526 152.288 97.585 C 152.282 97.642 152.279 97.687 152.273 97.738 C 152.273 97.753 152.27 97.768 152.268 97.783 C 152.264 97.828 152.258 97.874 152.251 97.92 C 152.251 97.934 152.251 97.948 152.246 97.962 C 152.239 98.024 152.23 98.085 152.22 98.146 C 152.212 98.204 152.203 98.258 152.192 98.315 L 152.175 98.412 C 152.159 98.504 152.137 98.595 152.111 98.684 C 152.06 98.852 151.999 99.016 151.927 99.176 C 151.827 99.395 151.716 99.608 151.594 99.816 C 151.526 99.931 151.457 100.045 151.385 100.157 C 151.311 100.273 151.233 100.39 151.153 100.509 C 150.948 100.802 150.735 101.089 150.514 101.37 L 150.413 101.498 C 150.052 101.947 149.68 102.388 149.296 102.818 L 149.175 102.954 C 149.012 103.136 148.846 103.319 148.676 103.504 L 148.548 103.642 C 148.463 103.735 148.374 103.828 148.289 103.921 C 148.204 104.014 148.115 104.108 148.025 104.202 L 147.759 104.483 L 147.489 104.765 L 147.216 105.048 C 147.033 105.238 146.85 105.427 146.665 105.616 C 144.036 108.313 141.265 111.001 140.328 112.676 C 140.265 112.785 140.209 112.898 140.158 113.013 C 140.024 113.318 139.969 113.578 140.007 113.789 C 140.019 113.858 140.043 113.925 140.079 113.986 C 140.131 114.077 140.196 114.161 140.27 114.237 C 140.305 114.27 140.341 114.301 140.379 114.33 C 140.572 114.467 140.805 114.538 141.042 114.532 L 141.116 114.532 L 141.192 114.526 L 141.268 114.517 L 141.331 114.508 C 141.339 114.507 141.348 114.506 141.357 114.503 L 141.415 114.492 L 141.43 114.489 L 141.494 114.475 L 141.516 114.469 C 141.539 114.463 141.561 114.458 141.584 114.451 C 141.607 114.445 141.638 114.436 141.665 114.427 C 141.779 114.393 141.891 114.352 142 114.305 C 142.058 114.282 142.114 114.257 142.17 114.229 C 142.199 114.216 142.228 114.203 142.256 114.189 L 142.343 114.146 C 142.55 114.038 142.752 113.921 142.949 113.795 L 143.036 113.737 C 143.065 113.718 143.094 113.7 143.122 113.679 L 143.208 113.621 L 143.254 113.589 L 143.379 113.502 C 143.495 113.422 143.603 113.34 143.713 113.256 L 143.722 113.248 L 143.897 113.113 C 144.135 112.925 144.36 112.736 144.565 112.558 L 144.702 112.438 L 144.714 112.427 L 144.785 112.364 C 144.953 112.213 145.102 112.073 145.226 111.958 L 145.277 111.908 C 145.321 111.866 145.362 111.826 145.399 111.793 L 145.472 111.721 L 145.498 111.695 L 145.505 111.688 L 145.581 111.612 L 145.629 111.562 L 145.635 111.558 L 145.657 111.537 L 145.686 111.511 L 145.695 111.503 L 145.719 111.481 L 145.851 111.365 L 145.925 111.298 C 145.965 111.264 146.003 111.229 146.041 111.193 L 146.129 111.115 C 146.146 111.102 146.161 111.088 146.177 111.073 L 146.27 110.992 L 146.406 110.872 L 146.479 110.81 C 146.761 110.564 147.104 110.268 147.498 109.934 L 147.66 109.797 L 147.926 109.574 L 148.199 109.346 C 148.556 109.05 148.94 108.735 149.346 108.409 L 149.612 108.195 C 149.839 108.014 150.072 107.83 150.308 107.645 C 150.403 107.57 150.5 107.495 150.598 107.421 C 150.84 107.234 151.082 107.048 151.327 106.864 C 151.883 106.444 152.457 106.023 153.038 105.614 L 153.287 105.44 C 153.461 105.32 153.635 105.199 153.809 105.082 L 153.966 104.976 C 154.277 104.765 154.592 104.559 154.91 104.359 L 155.067 104.26 L 155.224 104.162 C 155.381 104.065 155.536 103.97 155.691 103.877 L 155.846 103.784 L 156.156 103.604 L 156.46 103.43 L 156.522 103.396 L 156.762 103.264 C 156.863 103.209 156.963 103.157 157.063 103.105 L 157.211 103.029 L 157.356 102.956 C 157.406 102.932 157.456 102.907 157.506 102.883 C 157.831 102.722 158.163 102.574 158.5 102.44 C 158.592 102.401 158.683 102.366 158.773 102.335 L 159.039 102.242 C 159.118 102.215 159.196 102.19 159.271 102.167 L 159.297 102.159 C 159.337 102.146 159.377 102.135 159.417 102.124 L 159.428 102.121 C 159.511 102.097 159.594 102.076 159.675 102.057 L 159.68 102.057 C 159.91 102.002 160.143 101.962 160.379 101.938 C 160.487 101.927 160.595 101.921 160.704 101.922 L 160.759 101.922 C 160.831 101.922 160.901 101.927 160.971 101.934 C 161.003 101.934 161.034 101.94 161.066 101.944 L 161.079 101.944 C 161.11 101.948 161.141 101.953 161.172 101.96 C 161.202 101.965 161.233 101.971 161.263 101.978 L 161.273 101.978 C 161.304 101.984 161.331 101.992 161.363 102.001 C 161.527 102.047 161.684 102.119 161.828 102.212 C 161.899 102.258 161.965 102.31 162.026 102.368 L 162.043 102.384 C 162.055 102.395 162.066 102.406 162.076 102.417 L 162.108 102.451 C 162.369 102.724 162.584 103.037 162.746 103.378 L 162.771 103.437 C 162.826 103.566 162.869 103.701 162.901 103.838 C 162.993 104.256 162.957 104.693 162.798 105.092 C 162.738 105.253 162.665 105.408 162.578 105.556 C 162.377 105.896 162.137 106.211 161.866 106.497 L 161.808 106.559 C 161.722 106.65 161.632 106.741 161.538 106.831 C 161.497 106.872 161.453 106.912 161.41 106.953 L 161.277 107.076 L 161.208 107.137 C 161.04 107.287 160.868 107.431 160.694 107.571 C 160.588 107.657 160.482 107.74 160.374 107.823 C 159.994 108.113 159.607 108.393 159.213 108.664 C 158.975 108.827 158.735 108.987 158.493 109.146 C 157.897 109.537 157.295 109.918 156.687 110.289 C 155.411 111.073 153.996 111.913 152.489 112.825 L 152.098 113.062 C 151.671 113.322 151.268 113.571 150.888 113.809 L 150.696 113.929 L 150.335 114.161 C 150.095 114.314 149.855 114.469 149.616 114.624 L 149.423 114.751 C 149.329 114.812 149.236 114.875 149.143 114.937 L 149.051 114.995 L 148.771 115.184 L 148.623 115.286 L 148.449 115.406 L 148.287 115.518 C 148.017 115.71 147.765 115.892 147.534 116.065 L 147.447 116.131 C 147.311 116.234 147.176 116.339 147.043 116.446 C 146.843 116.608 146.66 116.762 146.496 116.911 L 146.415 116.984 C 146.369 117.026 146.324 117.068 146.281 117.11 C 146.251 117.139 146.223 117.168 146.192 117.196 L 146.15 117.237 C 146.057 117.331 145.967 117.426 145.879 117.524 L 145.836 117.573 C 145.741 117.684 145.658 117.789 145.585 117.892 L 145.553 117.938 C 145.496 118.021 145.443 118.107 145.396 118.195 C 145.384 118.217 145.373 118.239 145.362 118.261 L 145.33 118.328 L 145.308 118.375 L 145.295 118.408 L 145.284 118.437 L 145.269 118.477 C 145.229 118.586 145.201 118.7 145.185 118.816 L 145.179 118.856 L 145.176 118.894 L 145.176 119.098 C 145.176 119.115 145.176 119.132 145.18 119.15 L 145.183 119.181 C 145.183 119.198 145.187 119.214 145.19 119.232 C 145.192 119.249 145.197 119.279 145.202 119.303 L 145.202 119.307 C 145.207 119.329 145.211 119.351 145.217 119.374 C 145.223 119.397 145.229 119.423 145.236 119.446 C 145.248 119.492 145.264 119.538 145.28 119.583 C 145.29 119.61 145.3 119.637 145.311 119.663 C 145.311 119.668 145.315 119.674 145.318 119.68 L 145.341 119.732 L 145.373 119.804 C 145.408 119.879 145.447 119.951 145.488 120.022 L 145.531 120.096 L 145.575 120.17 C 145.583 120.182 145.592 120.194 145.602 120.205 L 145.616 120.22 L 145.632 120.235 L 145.649 120.248 C 145.674 120.265 145.7 120.279 145.728 120.288 C 145.743 120.294 145.759 120.297 145.774 120.301 C 146.148 120.386 146.917 120.076 147.939 119.537 C 147.997 119.506 148.06 119.473 148.122 119.44 L 148.433 119.27 L 148.585 119.185 C 148.693 119.128 148.804 119.062 148.916 118.998 L 149.122 118.882 C 150.473 118.104 152.086 117.106 153.754 116.131 C 153.91 116.039 154.067 115.948 154.224 115.858 L 154.539 115.656 C 154.905 115.446 155.272 115.24 155.641 115.035 C 156.106 114.78 156.574 114.531 157.047 114.29 L 157.356 114.133 C 157.561 114.032 157.764 113.934 157.964 113.838 C 158.352 113.654 158.744 113.478 159.141 113.313 L 159.358 113.225 L 159.384 113.215 C 160.535 112.759 161.578 112.477 162.423 112.477 C 162.605 112.475 162.788 112.491 162.967 112.522 L 162.973 112.522 C 163.031 112.532 163.083 112.544 163.137 112.557 L 163.147 112.557 C 163.285 112.592 163.419 112.642 163.546 112.706 C 163.725 112.798 163.885 112.921 164.02 113.069 C 164.083 113.137 164.138 113.212 164.186 113.291 C 164.277 113.431 164.349 113.582 164.4 113.74 C 164.421 113.801 164.439 113.862 164.458 113.926 C 164.594 114.417 164.581 114.937 164.419 115.421 Z" fill="#FF9D00"/>
  <path fill-rule="evenodd" clip-rule="evenodd" d="M 156.769 80.202 L 156.769 79.884 C 156.769 52.744 134.775 30.743 107.634 30.743 C 80.493 30.743 58.491 52.745 58.491 79.884 L 58.491 79.99 C 58.489 80.061 58.489 80.131 58.491 80.202 C 58.494 80.308 58.495 80.413 58.494 80.519 L 58.497 80.753 L 58.499 80.836 C 58.499 80.875 58.5 80.913 58.502 80.952 C 58.504 81.014 58.505 81.076 58.505 81.138 L 58.512 81.39 L 58.522 81.686 L 58.526 81.784 L 58.539 82.09 L 58.539 82.105 C 58.544 82.225 58.55 82.344 58.556 82.464 L 58.557 82.473 C 58.563 82.595 58.57 82.717 58.578 82.84 C 58.584 82.953 58.59 83.066 58.599 83.178 L 58.6 83.198 C 58.606 83.295 58.612 83.392 58.62 83.489 L 58.622 83.515 L 58.643 83.795 L 58.645 83.813 C 58.649 83.868 58.653 83.922 58.658 83.975 C 58.697 84.442 58.742 84.91 58.793 85.376 L 58.797 85.405 L 58.836 85.748 L 58.88 86.108 L 58.913 86.352 L 58.928 86.467 C 58.962 86.732 59 86.996 59.04 87.259 L 59.042 87.277 L 59.081 87.526 C 59.266 88.711 59.495 89.89 59.768 91.059 L 59.771 91.074 L 59.792 91.161 L 59.851 91.411 L 59.887 91.367 C 61.314 89.662 63.36 88.722 65.65 88.722 C 67.485 88.722 69.368 89.329 71.254 90.525 C 72.506 91.32 73.89 92.728 75.314 94.499 C 76.631 92.669 78.478 91.452 80.591 91.12 C 80.993 91.057 81.401 91.025 81.808 91.024 C 86.63 91.024 89.534 95.209 90.632 98.973 C 91.174 100.245 93.786 106.036 97.726 109.954 C 103.715 115.937 105.214 122.111 102.25 128.722 L 102.26 128.722 C 102.462 128.745 102.665 128.765 102.869 128.784 C 102.99 128.796 103.111 128.808 103.233 128.818 L 103.276 128.822 L 103.543 128.845 L 103.79 128.864 C 104.024 128.882 104.26 128.899 104.496 128.914 L 104.683 128.925 L 104.832 128.934 L 104.924 128.939 L 105.214 128.954 L 105.293 128.957 L 105.597 128.971 L 105.935 128.984 L 106.207 128.992 L 106.253 128.993 C 106.31 128.996 106.368 128.998 106.426 128.998 L 106.488 129 C 106.87 129.009 107.252 129.013 107.635 129.012 L 108.041 129.012 L 108.331 129.009 C 108.402 129.006 108.473 129.006 108.545 129.006 L 108.658 129.006 L 108.755 129.003 C 108.794 129.002 108.832 129.001 108.871 129.001 L 108.987 129.001 L 109.215 128.995 L 109.557 128.983 L 109.934 128.966 C 110.043 128.963 110.15 128.957 110.258 128.952 L 110.374 128.944 L 110.546 128.935 L 110.648 128.929 L 110.724 128.924 L 111.072 128.902 L 111.42 128.876 L 111.736 128.851 L 111.957 128.832 L 112.201 128.81 C 112.608 128.774 113.014 128.731 113.42 128.682 L 113.697 128.649 C 110.78 122.066 112.29 115.919 118.254 109.96 C 122.185 106.032 124.798 100.24 125.342 98.968 C 126.44 95.204 129.343 91.02 134.166 91.02 C 134.574 91.02 134.981 91.052 135.384 91.116 C 137.495 91.448 139.342 92.664 140.661 94.494 C 142.086 92.724 143.469 91.315 144.721 90.52 C 146.607 89.324 148.492 88.717 150.325 88.717 C 152.345 88.717 154.177 89.45 155.56 90.794 C 155.585 90.685 155.61 90.575 155.634 90.465 L 155.704 90.137 C 155.73 90.017 155.755 89.897 155.779 89.777 C 155.822 89.565 155.864 89.353 155.905 89.139 C 155.948 88.917 155.989 88.694 156.028 88.471 L 156.048 88.35 C 156.06 88.279 156.072 88.208 156.086 88.136 C 156.108 88.024 156.126 87.913 156.144 87.8 L 156.151 87.757 L 156.197 87.463 L 156.242 87.166 L 156.242 87.163 C 156.276 86.943 156.307 86.723 156.336 86.504 L 156.343 86.449 L 156.384 86.139 L 156.417 85.875 L 156.475 85.353 L 156.498 85.144 L 156.504 85.087 C 156.516 84.974 156.528 84.861 156.538 84.748 L 156.538 84.739 C 156.547 84.65 156.556 84.56 156.563 84.469 C 156.609 83.958 156.648 83.445 156.68 82.929 C 156.685 82.845 156.69 82.76 156.695 82.675 L 156.695 82.671 L 156.712 82.353 L 156.716 82.282 C 156.726 82.066 156.735 81.851 156.742 81.636 L 156.742 81.628 L 156.746 81.544 C 156.749 81.473 156.751 81.402 156.751 81.33 L 156.753 81.302 C 156.755 81.235 156.758 81.166 156.758 81.098 L 156.76 81.04 C 156.762 80.972 156.764 80.904 156.764 80.836 L 156.765 80.779 C 156.767 80.692 156.769 80.605 156.769 80.519 L 156.769 80.202 Z M 95.445 129.293 C 99.337 123.586 99.061 119.302 93.721 113.965 C 88.381 108.628 85.273 100.824 85.273 100.824 C 85.273 100.824 84.113 96.29 81.467 96.707 C 78.822 97.123 76.881 103.897 82.421 108.044 C 87.96 112.191 81.318 115.002 79.186 111.111 C 77.054 107.219 71.233 97.216 68.215 95.302 C 65.197 93.389 63.075 94.461 63.786 98.405 C 64.14 100.363 67.426 103.704 70.496 106.826 C 73.612 109.993 76.504 112.934 75.886 113.975 C 74.658 116.041 70.335 111.546 70.335 111.546 C 70.335 111.546 56.798 99.227 53.852 102.438 C 51.135 105.396 55.324 107.912 61.78 111.789 C 62.329 112.118 62.894 112.458 63.473 112.808 C 70.86 117.28 71.434 118.459 70.385 120.151 C 69.998 120.776 67.526 119.292 64.485 117.466 C 59.3 114.353 52.465 110.249 51.499 113.923 C 50.664 117.102 55.693 119.05 60.254 120.817 C 64.054 122.289 67.53 123.635 67.018 125.462 C 66.488 127.357 63.617 125.777 60.477 124.049 C 56.953 122.11 53.092 119.986 51.828 122.383 C 49.44 126.915 68.305 132.251 68.46 132.291 C 74.556 133.872 90.035 137.222 95.445 129.293 Z M 120.517 129.293 C 116.625 123.586 116.901 119.302 122.241 113.965 C 127.581 108.628 130.689 100.824 130.689 100.824 C 130.689 100.824 131.849 96.29 134.495 96.707 C 137.14 97.123 139.081 103.897 133.542 108.044 C 128.002 112.191 134.644 115.002 136.776 111.111 C 138.908 107.219 144.726 97.216 147.743 95.302 C 150.761 93.389 152.885 94.461 152.173 98.405 C 151.82 100.363 148.533 103.704 145.463 106.826 C 142.348 109.993 139.455 112.934 140.073 113.975 C 141.301 116.041 145.627 111.544 145.627 111.544 C 145.627 111.544 159.163 99.225 162.111 102.436 C 164.827 105.394 160.638 107.91 154.181 111.787 C 153.616 112.126 153.052 112.466 152.489 112.806 C 145.102 117.278 144.528 118.457 145.576 120.148 C 145.963 120.774 148.436 119.289 151.476 117.464 C 156.661 114.351 163.497 110.247 164.463 113.921 C 165.299 117.1 160.269 119.048 155.707 120.815 C 151.908 122.287 148.432 123.633 148.943 125.46 C 149.472 127.354 152.343 125.774 155.482 124.047 C 159.006 122.107 162.868 119.982 164.131 122.381 C 166.52 126.916 147.652 132.247 147.5 132.286 C 141.404 133.872 125.925 137.222 120.517 129.293 Z" fill="#FFD21E"/>
  <path fill-rule="evenodd" clip-rule="evenodd" d="M 123.593 66.508 C 124.359 66.779 124.929 67.604 125.472 68.389 C 126.204 69.45 126.886 70.438 127.933 69.882 C 129.168 69.225 130.18 68.217 130.841 66.985 C 131.503 65.753 131.785 64.353 131.652 62.961 C 131.552 61.92 131.222 60.914 130.687 60.016 C 130.151 59.118 129.423 58.35 128.555 57.767 C 127.687 57.184 126.7 56.801 125.667 56.646 C 124.632 56.49 123.577 56.566 122.576 56.867 C 121.574 57.169 120.653 57.688 119.877 58.389 C 119.101 59.089 118.489 59.953 118.087 60.918 C 117.685 61.883 117.502 62.925 117.55 63.97 C 117.6 65.014 117.879 66.034 118.37 66.958 C 118.855 67.87 119.931 67.44 121.067 66.985 C 121.958 66.629 122.886 66.258 123.593 66.508 Z M 90.28 66.508 C 89.513 66.779 88.943 67.605 88.401 68.389 C 87.668 69.451 86.985 70.438 85.94 69.882 C 84.387 69.059 83.196 67.688 82.599 66.036 C 82.003 64.383 82.043 62.568 82.712 60.943 C 83.38 59.318 84.63 58.001 86.218 57.248 C 87.805 56.494 89.616 56.359 91.298 56.869 C 92.637 57.272 93.826 58.063 94.716 59.142 C 95.605 60.221 96.154 61.539 96.295 62.93 C 96.435 64.321 96.16 65.723 95.503 66.958 C 95.018 67.87 93.941 67.44 92.805 66.986 C 91.914 66.629 90.988 66.258 90.28 66.508 Z M 118.439 96.823 C 123.719 92.664 125.659 85.872 125.659 81.688 C 125.659 78.381 123.434 79.422 119.872 81.186 L 119.671 81.285 C 116.402 82.904 112.05 85.06 107.272 85.06 C 102.494 85.06 98.141 82.904 94.872 81.284 C 91.195 79.463 88.889 78.32 88.889 81.689 C 88.889 86.005 90.952 93.092 96.615 97.209 C 97.363 95.692 98.415 94.346 99.707 93.254 C 100.998 92.162 102.501 91.348 104.121 90.863 C 104.687 90.694 105.269 91.668 105.865 92.664 C 106.44 93.625 107.028 94.608 107.626 94.608 C 108.263 94.608 108.889 93.64 109.501 92.694 C 110.139 91.705 110.762 90.742 111.365 90.935 C 114.396 91.908 116.932 94.019 118.439 96.823 Z" fill="#32343D"/>
  <path d="M 118.438 96.823 C 115.688 98.99 112.033 100.443 107.273 100.443 C 102.8 100.443 99.303 99.16 96.615 97.208 C 97.363 95.691 98.415 94.344 99.707 93.253 C 100.998 92.161 102.501 91.347 104.121 90.862 C 105.231 90.531 106.408 94.608 107.626 94.608 C 108.929 94.608 110.185 90.558 111.365 90.934 C 114.396 91.908 116.931 94.019 118.438 96.823 Z" fill="#FF323D"/>
  <path fill-rule="evenodd" clip-rule="evenodd" d="M 77.653 72.392 C 77.025 72.812 76.303 73.071 75.55 73.144 C 74.798 73.219 74.039 73.106 73.341 72.816 C 72.783 72.586 72.276 72.248 71.849 71.82 C 71.422 71.394 71.083 70.887 70.853 70.328 C 70.564 69.63 70.451 68.871 70.526 68.119 C 70.6 67.367 70.859 66.645 71.279 66.016 C 71.784 65.26 72.502 64.671 73.342 64.323 C 74.182 63.975 75.106 63.884 75.998 64.061 C 76.89 64.239 77.708 64.677 78.351 65.32 C 78.994 65.963 79.431 66.783 79.608 67.674 C 79.785 68.566 79.694 69.49 79.346 70.33 C 78.999 71.169 78.409 71.886 77.653 72.392 Z M 143.413 72.392 C 142.785 72.812 142.062 73.071 141.31 73.144 C 140.557 73.219 139.799 73.106 139.1 72.816 C 138.542 72.585 138.035 72.248 137.608 71.82 C 137.182 71.394 136.843 70.887 136.612 70.328 C 136.324 69.63 136.212 68.871 136.286 68.119 C 136.36 67.367 136.619 66.645 137.038 66.016 C 137.416 65.451 137.914 64.977 138.497 64.627 C 139.08 64.278 139.733 64.062 140.41 63.995 C 141.087 63.929 141.769 64.013 142.409 64.243 C 143.049 64.472 143.63 64.84 144.11 65.321 C 144.753 65.964 145.191 66.783 145.368 67.674 C 145.546 68.566 145.454 69.49 145.106 70.33 C 144.758 71.169 144.169 71.886 143.413 72.392 Z" fill="#FFAD03"/>
  <text style="fill: rgb(0, 0, 0); font-family: Arial, sans-serif; font-size: 100px; font-weight: 700; text-transform: lowercase; white-space: pre;" x="214.968" y="116.676">hf-tokenizer.js</text>
</svg>