<?xml version="1.0" encoding="utf-8"?>
<svg viewBox="0 0 936 166" fill="none" xmlns="http://www.w3.org/2000/svg">
  <path d="M 214.608 110.985 C 214.259 109.671 213.695 108.424 212.938 107.294 C 213.101 106.7 213.224 106.095 213.307 105.484 C 213.844 101.609 212.501 98.062 209.969 95.317 C 208.598 93.818 207.128 92.828 205.571 92.22 C 206.593 87.848 207.11 83.373 207.112 78.883 C 207.112 76.832 206.996 74.823 206.802 72.844 C 206.7 71.856 206.578 70.87 206.434 69.887 C 205.988 66.987 205.327 64.123 204.456 61.321 C 203.884 59.48 203.224 57.668 202.475 55.891 C 201.354 53.26 200.045 50.713 198.558 48.27 C 197.583 46.644 196.521 45.072 195.376 43.561 C 194.815 42.797 194.231 42.052 193.623 41.326 C 191.821 39.137 189.864 37.081 187.765 35.175 C 187.068 34.534 186.352 33.915 185.616 33.319 C 184.892 32.715 184.151 32.13 183.396 31.566 C 181.875 30.434 180.304 29.372 178.687 28.384 C 169.751 22.957 159.271 19.844 148.071 19.844 C 115.46 19.844 89.029 46.276 89.029 78.885 C 89.028 83.432 89.554 87.963 90.598 92.388 C 89.198 92.996 87.856 93.944 86.611 95.316 C 84.08 98.059 82.735 101.594 83.273 105.469 C 83.355 106.084 83.477 106.694 83.641 107.293 C 82.885 108.423 82.321 109.671 81.972 110.985 C 81.194 113.943 81.45 116.61 82.439 118.947 C 81.364 122.001 81.632 125.253 83.032 128.081 C 84.05 130.146 85.508 131.744 87.304 133.172 C 89.439 134.87 92.112 136.312 95.336 137.696 C 99.182 139.336 103.878 140.877 106.013 141.443 C 111.529 142.871 116.817 143.776 122.177 143.82 C 129.814 143.891 136.39 142.095 141.099 137.5 C 143.412 137.783 145.74 137.925 148.071 137.924 C 150.533 137.919 152.992 137.764 155.436 137.46 C 160.133 142.085 166.735 143.897 174.399 143.824 C 179.759 143.781 185.047 142.876 190.549 141.446 C 192.698 140.881 197.391 139.339 201.24 137.699 C 204.464 136.313 207.137 134.871 209.286 133.176 C 211.069 131.747 212.525 130.15 213.543 128.085 C 214.958 125.257 215.212 122.004 214.152 118.95 C 215.131 116.613 215.386 113.94 214.608 110.985 Z M 209.135 118.749 C 210.219 120.805 210.288 123.128 209.332 125.292 C 207.883 128.571 204.281 131.155 197.286 133.928 C 192.937 135.653 188.954 136.756 188.919 136.766 C 183.166 138.258 177.963 139.016 173.459 139.016 C 166.001 139.016 160.451 136.958 156.931 132.893 C 150.979 133.907 144.902 133.942 138.939 132.996 C 135.415 136.993 129.896 139.016 122.501 139.016 C 117.996 139.016 112.794 138.258 107.04 136.766 C 107.005 136.756 103.024 135.653 98.673 133.928 C 91.679 131.155 88.076 128.573 86.627 125.292 C 85.671 123.128 85.74 120.805 86.824 118.749 C 86.924 118.558 87.031 118.372 87.146 118.191 C 86.497 117.216 86.061 116.114 85.868 114.958 C 85.675 113.803 85.729 112.619 86.026 111.486 C 86.456 109.85 87.345 108.489 88.553 107.512 C 87.971 106.556 87.589 105.493 87.431 104.385 C 87.083 101.977 87.883 99.573 89.681 97.612 C 91.082 96.086 93.061 95.246 95.253 95.246 L 95.311 95.246 C 93.659 89.949 92.821 84.432 92.826 78.883 C 92.826 48.62 117.361 24.084 147.628 24.084 C 177.896 24.084 202.43 48.617 202.43 78.883 C 202.434 84.447 201.591 89.978 199.928 95.288 C 200.192 95.262 200.451 95.249 200.706 95.248 C 202.898 95.248 204.878 96.088 206.278 97.614 C 208.076 99.573 208.876 101.979 208.528 104.387 C 208.37 105.495 207.988 106.558 207.407 107.514 C 208.614 108.491 209.504 109.852 209.934 111.488 C 210.231 112.621 210.284 113.805 210.091 114.961 C 209.899 116.116 209.463 117.218 208.813 118.193 C 208.928 118.372 209.037 118.558 209.135 118.749 Z" fill="white"/>
  <path d="M 208.813 118.193 C 209.463 117.218 209.899 116.116 210.092 114.961 C 210.284 113.805 210.231 112.621 209.934 111.488 C 209.503 109.852 208.613 108.491 207.407 107.514 C 207.988 106.558 208.37 105.495 208.528 104.387 C 208.876 101.979 208.076 99.575 206.278 97.614 C 204.878 96.088 202.898 95.248 200.706 95.248 C 200.451 95.248 200.192 95.262 199.928 95.288 C 201.589 89.978 202.431 84.447 202.425 78.884 C 202.425 48.62 177.891 24.085 147.627 24.085 C 117.361 24.085 92.824 48.618 92.824 78.884 C 92.819 84.433 93.657 89.951 95.309 95.248 L 95.251 95.248 C 93.059 95.248 91.08 96.087 89.68 97.612 C 87.881 99.571 87.081 101.978 87.429 104.386 C 87.588 105.494 87.97 106.558 88.551 107.513 C 87.344 108.49 86.454 109.85 86.024 111.486 C 85.727 112.621 85.673 113.804 85.867 114.96 C 86.06 116.116 86.496 117.218 87.145 118.193 C 87.03 118.373 86.924 118.56 86.823 118.751 C 85.74 120.807 85.67 123.13 86.627 125.294 C 88.077 128.573 91.678 131.157 98.673 133.93 C 103.022 135.655 107.005 136.758 107.04 136.768 C 112.793 138.26 117.996 139.018 122.5 139.018 C 129.896 139.018 135.415 136.995 138.939 132.998 C 144.902 133.944 150.979 133.909 156.931 132.895 C 160.451 136.96 166.001 139.018 173.459 139.018 C 177.963 139.018 183.166 138.26 188.918 136.768 C 188.954 136.758 192.935 135.655 197.286 133.93 C 204.281 131.157 207.883 128.573 209.332 125.294 C 210.288 123.13 210.219 120.807 209.135 118.751 C 209.037 118.558 208.928 118.371 208.813 118.193 Z M 136.417 126.74 C 136.114 127.271 135.789 127.789 135.443 128.293 C 134.532 129.626 133.334 130.646 131.943 131.403 C 129.284 132.853 125.919 133.359 122.5 133.359 C 117.099 133.359 111.563 132.096 108.46 131.291 C 108.307 131.251 89.439 125.922 91.828 121.385 C 92.23 120.622 92.891 120.317 93.724 120.317 C 97.088 120.317 103.212 125.326 105.844 125.326 C 106.433 125.326 106.848 125.076 107.017 124.465 C 108.139 120.442 89.967 118.751 91.498 112.925 C 91.767 111.894 92.5 111.475 93.53 111.475 C 97.977 111.475 107.958 119.296 110.045 119.296 C 110.205 119.296 110.32 119.248 110.382 119.15 C 110.391 119.135 110.4 119.12 110.409 119.105 C 111.389 117.487 110.826 116.311 104.114 112.2 L 103.47 111.807 C 96.083 107.337 90.899 104.647 93.848 101.437 C 94.187 101.067 94.668 100.903 95.252 100.903 C 95.945 100.903 96.783 101.134 97.707 101.523 C 101.608 103.168 107.014 107.655 109.273 109.611 C 109.628 109.92 109.981 110.232 110.332 110.546 C 110.332 110.546 113.191 113.519 114.92 113.519 C 115.318 113.519 115.656 113.362 115.885 112.975 C 117.111 110.907 104.496 101.348 103.785 97.404 C 103.303 94.731 104.123 93.378 105.641 93.378 C 106.363 93.378 107.243 93.685 108.215 94.302 C 111.23 96.215 117.052 106.219 119.183 110.111 C 119.898 111.415 121.118 111.966 122.217 111.966 C 124.398 111.966 126.102 109.799 122.417 107.044 C 116.877 102.899 118.821 96.124 121.465 95.707 C 121.578 95.689 121.692 95.68 121.805 95.68 C 124.209 95.68 125.27 99.823 125.27 99.823 C 125.27 99.823 128.378 107.629 133.718 112.965 C 138.563 117.808 139.24 121.782 136.417 126.74 Z M 153.684 127.655 L 153.407 127.688 L 152.935 127.741 C 152.687 127.767 152.438 127.792 152.188 127.815 L 151.945 127.837 L 151.723 127.856 L 151.408 127.881 L 151.059 127.906 L 150.712 127.929 L 150.635 127.934 C 150.544 127.939 150.453 127.945 150.361 127.95 L 150.245 127.956 C 150.137 127.962 150.03 127.967 149.921 127.972 L 149.544 127.988 L 149.202 127.999 L 148.974 128.006 L 148.858 128.006 C 148.787 128.006 148.716 128.01 148.645 128.011 L 148.532 128.011 C 148.46 128.011 148.39 128.011 148.318 128.014 L 148.028 128.018 L 147.623 128.018 C 147.304 128.018 146.987 128.014 146.67 128.008 L 146.413 128.002 C 146.34 128.002 146.267 127.999 146.195 127.996 L 145.922 127.988 L 145.585 127.975 L 145.28 127.962 L 145.201 127.959 L 144.912 127.944 C 144.83 127.939 144.751 127.935 144.67 127.929 L 144.483 127.918 C 144.248 127.904 144.012 127.887 143.777 127.869 L 143.53 127.849 C 143.427 127.841 143.323 127.832 143.22 127.822 C 143.099 127.812 142.977 127.8 142.856 127.789 C 142.653 127.77 142.45 127.749 142.247 127.727 L 142.237 127.727 C 145.201 121.116 143.702 114.942 137.714 108.959 C 133.786 105.036 131.174 99.245 130.632 97.973 C 129.534 94.209 126.631 90.024 121.808 90.024 C 121.4 90.024 120.993 90.057 120.591 90.12 C 118.478 90.453 116.631 91.669 115.314 93.499 C 113.89 91.728 112.506 90.32 111.254 89.525 C 109.367 88.329 107.484 87.722 105.65 87.722 C 103.36 87.722 101.314 88.662 99.887 90.367 L 99.851 90.411 C 99.824 90.299 99.798 90.187 99.771 90.074 L 99.768 90.059 C 99.496 88.898 99.268 87.728 99.084 86.549 C 99.084 86.542 99.084 86.534 99.081 86.526 C 99.066 86.437 99.053 86.348 99.04 86.259 C 99 85.996 98.962 85.732 98.928 85.468 C 98.912 85.348 98.895 85.228 98.88 85.108 L 98.836 84.748 C 98.822 84.628 98.81 84.519 98.797 84.405 L 98.793 84.377 C 98.742 83.91 98.696 83.443 98.657 82.975 L 98.643 82.795 L 98.62 82.489 C 98.614 82.405 98.607 82.321 98.603 82.237 C 98.603 82.217 98.599 82.197 98.599 82.178 C 98.582 81.944 98.568 81.708 98.557 81.473 C 98.55 81.35 98.544 81.228 98.538 81.105 L 98.525 80.784 L 98.522 80.686 L 98.512 80.39 L 98.505 80.138 C 98.505 80.037 98.5 79.937 98.499 79.836 C 98.497 79.736 98.494 79.625 98.494 79.519 C 98.492 79.413 98.494 79.308 98.49 79.202 C 98.488 79.096 98.49 78.99 98.49 78.884 C 98.49 51.745 120.493 29.743 147.634 29.743 C 174.775 29.743 196.777 51.745 196.777 78.884 L 196.777 79.519 C 196.777 79.625 196.774 79.731 196.772 79.836 C 196.772 79.924 196.768 80.01 196.765 80.099 C 196.765 80.177 196.762 80.255 196.759 80.33 C 196.759 80.43 196.753 80.529 196.75 80.628 L 196.75 80.636 L 196.737 80.98 C 196.732 81.081 196.728 81.182 196.723 81.282 L 196.72 81.354 L 196.702 81.675 C 196.664 82.364 196.611 83.052 196.546 83.74 L 196.546 83.748 C 196.535 83.861 196.524 83.974 196.512 84.087 L 196.482 84.353 L 196.425 84.875 L 196.392 85.138 L 196.351 85.449 C 196.336 85.562 196.321 85.675 196.304 85.788 C 196.287 85.914 196.268 86.04 196.25 86.166 L 196.205 86.463 L 196.152 86.8 C 196.134 86.913 196.114 87.024 196.093 87.136 C 196.072 87.248 196.055 87.359 196.036 87.471 C 195.997 87.694 195.956 87.917 195.913 88.139 C 195.848 88.472 195.781 88.804 195.712 89.136 L 195.641 89.465 C 195.617 89.574 195.592 89.685 195.567 89.794 C 194.184 88.45 192.352 87.718 190.333 87.718 C 188.499 87.718 186.614 88.324 184.728 89.521 C 183.477 90.316 182.094 91.724 180.669 93.494 C 179.349 91.664 177.503 90.449 175.391 90.116 C 174.989 90.052 174.581 90.02 174.174 90.02 C 169.35 90.02 166.448 94.204 165.35 97.968 C 164.806 99.24 162.192 105.032 158.262 108.96 C 152.277 114.924 150.768 121.071 153.684 127.655 Z M 204.419 114.421 L 204.399 114.478 C 204.35 114.609 204.293 114.736 204.229 114.859 C 204.18 114.95 204.127 115.038 204.07 115.123 C 203.962 115.285 203.843 115.439 203.714 115.585 C 203.685 115.618 203.656 115.652 203.622 115.685 C 203.576 115.735 203.528 115.784 203.48 115.832 C 202.607 116.697 201.276 117.456 199.772 118.152 C 199.601 118.229 199.428 118.306 199.254 118.384 L 199.08 118.461 C 198.964 118.512 198.848 118.563 198.726 118.613 C 198.61 118.663 198.489 118.714 198.369 118.763 L 198.007 118.912 C 197.161 119.261 196.294 119.593 195.448 119.92 L 195.086 120.061 L 194.729 120.201 C 194.491 120.293 194.256 120.386 194.025 120.479 L 193.681 120.618 L 193.343 120.756 L 193.177 120.826 C 193.066 120.872 192.957 120.918 192.849 120.964 C 190.361 122.032 188.571 123.118 188.947 124.466 C 188.957 124.504 188.969 124.54 188.982 124.576 C 189.016 124.676 189.062 124.77 189.119 124.858 C 189.153 124.911 189.192 124.961 189.235 125.006 C 189.678 125.466 190.482 125.393 191.497 125.028 C 191.64 124.976 191.782 124.921 191.923 124.864 L 192.011 124.828 C 192.243 124.729 192.489 124.619 192.74 124.5 C 192.802 124.47 192.866 124.442 192.93 124.408 C 194.171 123.802 195.577 122.984 196.973 122.241 C 197.531 121.939 198.097 121.653 198.67 121.382 C 199.992 120.76 201.234 120.319 202.233 120.319 C 202.702 120.319 203.115 120.415 203.46 120.635 L 203.518 120.673 C 203.734 120.826 203.916 121.022 204.052 121.249 C 204.078 121.292 204.104 121.338 204.129 121.385 C 204.623 122.322 204.21 123.292 203.243 124.244 C 202.315 125.157 200.872 126.053 199.231 126.882 C 199.109 126.943 198.987 127.005 198.863 127.065 C 193.981 129.463 187.586 131.269 187.498 131.292 C 185.794 131.733 183.357 132.313 180.611 132.747 L 180.205 132.81 L 180.139 132.82 C 179.831 132.867 179.523 132.91 179.214 132.95 C 178.901 132.992 178.585 133.031 178.266 133.066 L 178.208 133.073 C 177.054 133.206 175.895 133.294 174.734 133.336 L 174.717 133.336 C 174.297 133.351 173.877 133.359 173.457 133.359 L 172.973 133.359 C 172.332 133.35 171.693 133.321 171.054 133.272 C 171.039 133.272 171.023 133.272 171.008 133.268 C 170.779 133.251 170.551 133.229 170.322 133.204 C 170.086 133.179 169.85 133.15 169.614 133.118 C 169.459 133.098 169.305 133.074 169.151 133.049 C 168.994 133.024 168.837 132.998 168.681 132.97 L 168.467 132.93 L 168.451 132.927 C 168.226 132.884 168.002 132.837 167.779 132.785 C 167.65 132.756 167.521 132.727 167.393 132.692 L 167.316 132.673 C 167.252 132.657 167.191 132.64 167.128 132.624 L 167.093 132.614 L 166.894 132.556 C 166.821 132.536 166.748 132.514 166.676 132.493 L 166.65 132.485 L 166.462 132.428 C 166.39 132.406 166.319 132.382 166.248 132.359 L 166.075 132.301 L 165.947 132.256 C 165.824 132.213 165.701 132.168 165.58 132.122 L 165.464 132.076 L 165.369 132.039 C 165.185 131.965 165.002 131.888 164.821 131.806 L 164.701 131.748 L 164.681 131.739 C 164.638 131.719 164.596 131.699 164.553 131.681 C 164.47 131.641 164.387 131.6 164.304 131.557 L 164.279 131.545 L 164.16 131.482 C 163.948 131.371 163.74 131.253 163.537 131.128 L 163.425 131.059 C 163.369 131.025 163.314 130.989 163.259 130.953 L 163.114 130.857 L 162.958 130.75 L 162.864 130.683 C 162.766 130.613 162.669 130.54 162.574 130.466 L 162.423 130.349 C 162.363 130.301 162.303 130.252 162.244 130.202 C 162.194 130.161 162.146 130.118 162.097 130.075 L 162.093 130.072 C 162.041 130.026 161.989 129.98 161.938 129.932 C 161.888 129.886 161.837 129.84 161.788 129.792 L 161.782 129.787 C 161.73 129.737 161.679 129.687 161.63 129.636 C 161.58 129.586 161.528 129.535 161.48 129.483 C 161.431 129.432 161.381 129.379 161.333 129.326 C 161.285 129.272 161.241 129.224 161.196 129.171 L 161.181 129.154 C 161.137 129.103 161.093 129.052 161.051 128.999 C 160.958 128.889 160.868 128.775 160.781 128.659 C 160.693 128.542 160.608 128.423 160.524 128.302 L 160.444 128.182 C 160.338 128.027 160.234 127.87 160.134 127.71 C 160.058 127.596 159.985 127.48 159.914 127.363 C 159.868 127.289 159.824 127.216 159.78 127.143 L 159.761 127.113 C 159.719 127.042 159.678 126.972 159.638 126.901 C 159.614 126.863 159.592 126.825 159.571 126.785 C 159.55 126.745 159.525 126.704 159.503 126.663 L 159.466 126.599 L 159.443 126.557 C 159.4 126.48 159.357 126.401 159.315 126.322 C 159.296 126.287 159.277 126.252 159.257 126.218 L 159.199 126.106 L 159.141 125.995 C 158.995 125.703 158.857 125.408 158.727 125.108 L 158.681 124.999 C 158.651 124.925 158.623 124.853 158.594 124.781 C 158.579 124.746 158.565 124.711 158.553 124.676 C 158.483 124.497 158.418 124.315 158.359 124.132 C 158.337 124.067 158.317 124.003 158.297 123.938 C 158.251 123.79 158.208 123.642 158.171 123.492 C 158.125 123.318 158.084 123.142 158.05 122.965 C 158.042 122.929 158.035 122.894 158.029 122.859 C 157.996 122.686 157.968 122.512 157.947 122.337 C 157.942 122.302 157.938 122.268 157.934 122.234 L 157.923 122.129 C 157.909 121.991 157.898 121.853 157.891 121.715 C 157.891 121.68 157.888 121.645 157.887 121.611 C 157.884 121.542 157.882 121.474 157.882 121.405 C 157.845 118.634 159.247 115.97 162.245 112.974 C 167.585 107.639 170.693 99.833 170.693 99.833 C 170.693 99.833 170.777 99.505 170.951 99.034 C 170.975 98.968 171 98.901 171.029 98.83 C 171.13 98.566 171.244 98.307 171.37 98.054 L 171.396 98.005 C 171.503 97.79 171.621 97.58 171.748 97.376 C 171.778 97.328 171.807 97.282 171.84 97.234 C 171.935 97.094 172.036 96.956 172.141 96.823 C 172.199 96.751 172.262 96.68 172.325 96.611 C 172.35 96.583 172.375 96.556 172.401 96.53 C 172.711 96.211 173.064 95.95 173.464 95.811 L 173.515 95.794 C 173.548 95.783 173.582 95.773 173.617 95.763 C 173.656 95.753 173.696 95.744 173.736 95.735 L 173.755 95.731 C 173.84 95.714 173.925 95.703 174.011 95.698 L 174.019 95.698 C 174.063 95.698 174.109 95.693 174.155 95.693 C 174.212 95.693 174.266 95.693 174.323 95.699 C 174.381 95.704 174.439 95.711 174.497 95.72 C 174.978 95.796 175.436 96.083 175.83 96.525 C 175.98 96.694 176.115 96.875 176.233 97.067 C 176.311 97.192 176.384 97.323 176.453 97.462 C 176.481 97.52 176.508 97.573 176.534 97.63 C 176.601 97.777 176.662 97.926 176.715 98.078 C 176.842 98.435 176.937 98.802 177 99.175 C 177.055 99.503 177.087 99.833 177.097 100.165 C 177.103 100.342 177.103 100.521 177.097 100.702 C 177.062 101.544 176.89 102.375 176.587 103.161 C 176.56 103.233 176.529 103.306 176.5 103.378 C 176.44 103.525 176.375 103.669 176.304 103.81 C 176.252 103.917 176.197 104.024 176.137 104.131 C 176.098 104.202 176.057 104.274 176.016 104.345 C 175.912 104.523 175.799 104.699 175.678 104.875 L 175.605 104.98 C 175.318 105.379 174.999 105.754 174.65 106.1 C 174.306 106.445 173.938 106.763 173.548 107.054 C 173.158 107.343 172.792 107.663 172.453 108.011 C 171.479 109.034 171.252 109.937 171.471 110.621 C 171.506 110.728 171.552 110.833 171.608 110.931 C 171.673 111.044 171.751 111.148 171.839 111.243 L 171.874 111.278 L 171.909 111.313 C 171.944 111.347 171.981 111.38 172.02 111.412 L 172.059 111.444 C 172.153 111.516 172.253 111.581 172.357 111.638 C 172.388 111.654 172.415 111.671 172.449 111.686 C 172.562 111.741 172.678 111.789 172.798 111.827 C 172.831 111.838 172.864 111.848 172.897 111.858 L 172.94 111.869 L 172.998 111.885 L 173.048 111.897 L 173.102 111.909 L 173.156 111.92 L 173.207 111.928 C 173.245 111.934 173.284 111.941 173.323 111.945 L 173.36 111.951 L 173.427 111.958 L 173.469 111.962 L 173.537 111.967 L 173.577 111.967 L 173.648 111.971 L 173.873 111.971 L 173.937 111.967 L 174.011 111.962 L 174.101 111.954 L 174.185 111.944 C 174.205 111.944 174.224 111.939 174.244 111.935 C 174.503 111.897 174.757 111.829 175 111.73 L 175.103 111.687 C 175.161 111.661 175.219 111.635 175.273 111.606 C 175.387 111.549 175.498 111.484 175.604 111.414 C 175.752 111.316 175.893 111.208 176.024 111.088 C 176.055 111.06 176.085 111.03 176.115 111.001 C 176.13 110.987 176.144 110.973 176.158 110.958 C 176.187 110.929 176.216 110.9 176.245 110.868 C 176.452 110.64 176.632 110.389 176.78 110.118 C 178.049 107.81 179.379 105.537 180.768 103.301 L 180.959 102.995 L 181.151 102.69 C 181.247 102.535 181.345 102.382 181.441 102.231 L 181.538 102.079 C 181.861 101.573 182.19 101.071 182.523 100.572 L 182.721 100.276 C 183.118 99.688 183.514 99.116 183.906 98.573 L 184.101 98.304 C 184.528 97.716 184.972 97.14 185.433 96.578 L 185.616 96.359 C 185.646 96.323 185.674 96.286 185.707 96.251 C 185.768 96.18 185.828 96.111 185.887 96.043 C 185.917 96.009 185.945 95.975 185.976 95.941 L 186.15 95.746 L 186.237 95.65 C 186.325 95.556 186.41 95.466 186.494 95.38 C 186.553 95.322 186.607 95.264 186.662 95.209 C 186.991 94.873 187.354 94.572 187.745 94.311 L 187.835 94.252 C 187.922 94.194 188.012 94.139 188.105 94.09 C 189.637 93.22 190.906 93.156 191.637 93.887 C 192.079 94.329 192.325 95.062 192.311 96.083 C 192.311 96.128 192.311 96.173 192.308 96.22 L 192.308 96.27 C 192.308 96.316 192.304 96.363 192.3 96.41 C 192.3 96.469 192.293 96.526 192.288 96.585 C 192.282 96.642 192.279 96.687 192.273 96.738 C 192.273 96.753 192.27 96.768 192.268 96.783 C 192.264 96.828 192.258 96.874 192.251 96.92 C 192.251 96.934 192.251 96.948 192.246 96.962 C 192.239 97.024 192.23 97.085 192.22 97.146 C 192.212 97.204 192.203 97.258 192.192 97.315 L 192.175 97.412 C 192.159 97.504 192.137 97.595 192.111 97.684 C 192.06 97.852 191.999 98.016 191.927 98.176 C 191.827 98.395 191.716 98.608 191.594 98.816 C 191.526 98.931 191.457 99.045 191.385 99.157 C 191.311 99.273 191.233 99.39 191.153 99.509 C 190.948 99.802 190.735 100.089 190.514 100.37 L 190.413 100.498 C 190.052 100.947 189.68 101.388 189.296 101.818 L 189.175 101.954 C 189.012 102.136 188.846 102.319 188.676 102.504 L 188.548 102.642 C 188.463 102.735 188.374 102.828 188.289 102.921 C 188.204 103.014 188.115 103.108 188.025 103.202 L 187.759 103.483 L 187.489 103.765 L 187.216 104.048 C 187.033 104.238 186.85 104.427 186.665 104.616 C 184.036 107.313 181.265 110.001 180.328 111.676 C 180.265 111.785 180.209 111.898 180.158 112.013 C 180.024 112.318 179.969 112.578 180.007 112.789 C 180.019 112.858 180.043 112.925 180.079 112.986 C 180.131 113.077 180.196 113.161 180.27 113.237 C 180.305 113.27 180.341 113.301 180.379 113.33 C 180.572 113.467 180.805 113.538 181.042 113.532 L 181.116 113.532 L 181.192 113.526 L 181.268 113.517 L 181.331 113.508 C 181.339 113.507 181.348 113.506 181.357 113.503 L 181.415 113.492 L 181.43 113.489 L 181.494 113.475 L 181.516 113.469 C 181.539 113.463 181.561 113.458 181.584 113.451 C 181.607 113.445 181.638 113.436 181.665 113.427 C 181.779 113.393 181.891 113.352 182 113.305 C 182.058 113.282 182.114 113.257 182.17 113.229 C 182.199 113.216 182.228 113.203 182.256 113.189 L 182.343 113.146 C 182.55 113.038 182.752 112.921 182.949 112.795 L 183.036 112.737 C 183.065 112.718 183.094 112.7 183.122 112.679 L 183.208 112.621 L 183.254 112.589 L 183.379 112.502 C 183.495 112.422 183.603 112.34 183.713 112.256 L 183.722 112.248 L 183.897 112.113 C 184.135 111.925 184.36 111.736 184.565 111.558 L 184.702 111.438 L 184.714 111.427 L 184.785 111.364 C 184.953 111.213 185.102 111.073 185.226 110.958 L 185.277 110.908 C 185.321 110.866 185.362 110.826 185.399 110.793 L 185.472 110.721 L 185.498 110.695 L 185.505 110.688 L 185.581 110.612 L 185.629 110.562 L 185.635 110.558 L 185.657 110.537 L 185.686 110.511 L 185.695 110.503 L 185.719 110.481 L 185.851 110.365 L 185.925 110.298 C 185.965 110.264 186.003 110.229 186.041 110.193 L 186.129 110.115 C 186.146 110.102 186.161 110.088 186.177 110.073 L 186.27 109.992 L 186.406 109.872 L 186.479 109.81 C 186.761 109.564 187.104 109.268 187.498 108.934 L 187.66 108.797 L 187.926 108.574 L 188.199 108.346 C 188.556 108.05 188.94 107.735 189.346 107.409 L 189.612 107.195 C 189.839 107.014 190.072 106.83 190.308 106.645 C 190.403 106.57 190.5 106.495 190.598 106.421 C 190.84 106.234 191.082 106.048 191.327 105.864 C 191.883 105.444 192.457 105.023 193.038 104.614 L 193.287 104.44 C 193.461 104.32 193.635 104.199 193.809 104.082 L 193.966 103.976 C 194.277 103.765 194.592 103.559 194.91 103.359 L 195.067 103.26 L 195.224 103.162 C 195.381 103.065 195.536 102.97 195.691 102.877 L 195.846 102.784 L 196.156 102.604 L 196.46 102.43 L 196.522 102.396 L 196.762 102.264 C 196.863 102.209 196.963 102.157 197.063 102.105 L 197.211 102.029 L 197.356 101.956 C 197.406 101.932 197.456 101.907 197.506 101.883 C 197.831 101.722 198.163 101.574 198.5 101.44 C 198.592 101.401 198.683 101.366 198.773 101.335 L 199.039 101.242 C 199.118 101.215 199.196 101.19 199.271 101.167 L 199.297 101.159 C 199.337 101.146 199.377 101.135 199.417 101.124 L 199.428 101.121 C 199.511 101.097 199.594 101.076 199.675 101.057 L 199.68 101.057 C 199.91 101.002 200.143 100.962 200.379 100.938 C 200.487 100.927 200.595 100.921 200.704 100.922 L 200.759 100.922 C 200.831 100.922 200.901 100.927 200.971 100.934 C 201.003 100.934 201.034 100.94 201.066 100.944 L 201.079 100.944 C 201.11 100.948 201.141 100.953 201.172 100.96 C 201.202 100.965 201.233 100.971 201.263 100.978 L 201.273 100.978 C 201.304 100.984 201.331 100.992 201.363 101.001 C 201.527 101.047 201.684 101.119 201.828 101.212 C 201.899 101.258 201.965 101.31 202.026 101.368 L 202.043 101.384 C 202.055 101.395 202.066 101.406 202.076 101.417 L 202.108 101.451 C 202.369 101.724 202.584 102.037 202.746 102.378 L 202.771 102.437 C 202.826 102.566 202.869 102.701 202.901 102.838 C 202.993 103.256 202.957 103.693 202.798 104.092 C 202.738 104.253 202.665 104.408 202.578 104.556 C 202.377 104.896 202.137 105.211 201.866 105.497 L 201.808 105.559 C 201.722 105.65 201.632 105.741 201.538 105.831 C 201.497 105.872 201.453 105.912 201.41 105.953 L 201.277 106.076 L 201.208 106.137 C 201.04 106.287 200.868 106.431 200.694 106.571 C 200.588 106.657 200.482 106.74 200.374 106.823 C 199.994 107.113 199.607 107.393 199.213 107.664 C 198.975 107.827 198.735 107.987 198.493 108.146 C 197.897 108.537 197.295 108.918 196.687 109.289 C 195.411 110.073 193.996 110.913 192.489 111.825 L 192.098 112.062 C 191.671 112.322 191.268 112.571 190.888 112.809 L 190.696 112.929 L 190.335 113.161 C 190.095 113.314 189.855 113.469 189.616 113.624 L 189.423 113.751 C 189.329 113.812 189.236 113.875 189.143 113.937 L 189.051 113.995 L 188.771 114.184 L 188.623 114.286 L 188.449 114.406 L 188.287 114.518 C 188.017 114.71 187.765 114.892 187.534 115.065 L 187.447 115.131 C 187.311 115.234 187.176 115.339 187.043 115.446 C 186.843 115.608 186.66 115.762 186.496 115.911 L 186.415 115.984 C 186.369 116.026 186.324 116.068 186.281 116.11 C 186.251 116.139 186.223 116.168 186.192 116.196 L 186.15 116.237 C 186.057 116.331 185.967 116.426 185.879 116.524 L 185.836 116.573 C 185.741 116.684 185.658 116.789 185.585 116.892 L 185.553 116.938 C 185.496 117.021 185.443 117.107 185.396 117.195 C 185.384 117.217 185.373 117.239 185.362 117.261 L 185.33 117.328 L 185.308 117.375 L 185.295 117.408 L 185.284 117.437 L 185.269 117.477 C 185.229 117.586 185.201 117.7 185.185 117.816 L 185.179 117.856 L 185.176 117.894 L 185.176 118.098 C 185.176 118.115 185.176 118.132 185.18 118.15 L 185.183 118.181 C 185.183 118.198 185.187 118.214 185.19 118.232 C 185.192 118.249 185.197 118.279 185.202 118.303 L 185.202 118.307 C 185.207 118.329 185.211 118.351 185.217 118.374 C 185.223 118.397 185.229 118.423 185.236 118.446 C 185.248 118.492 185.264 118.538 185.28 118.583 C 185.29 118.61 185.3 118.637 185.311 118.663 C 185.311 118.668 185.315 118.674 185.318 118.68 L 185.341 118.732 L 185.373 118.804 C 185.408 118.879 185.447 118.951 185.488 119.022 L 185.531 119.096 L 185.575 119.17 C 185.583 119.182 185.592 119.194 185.602 119.205 L 185.616 119.22 L 185.632 119.235 L 185.649 119.248 C 185.674 119.265 185.7 119.279 185.728 119.288 C 185.743 119.294 185.759 119.297 185.774 119.301 C 186.148 119.386 186.917 119.076 187.939 118.537 C 187.997 118.506 188.06 118.473 188.122 118.44 L 188.433 118.27 L 188.585 118.185 C 188.693 118.128 188.804 118.062 188.916 117.998 L 189.122 117.882 C 190.473 117.104 192.086 116.106 193.754 115.131 C 193.91 115.039 194.067 114.948 194.224 114.858 L 194.539 114.656 C 194.905 114.446 195.272 114.24 195.641 114.035 C 196.106 113.78 196.574 113.531 197.047 113.29 L 197.356 113.133 C 197.561 113.032 197.764 112.934 197.964 112.838 C 198.352 112.654 198.744 112.478 199.141 112.313 L 199.358 112.225 L 199.384 112.215 C 200.535 111.759 201.578 111.477 202.423 111.477 C 202.605 111.475 202.788 111.491 202.967 111.522 L 202.973 111.522 C 203.031 111.532 203.083 111.544 203.137 111.557 L 203.147 111.557 C 203.285 111.592 203.419 111.642 203.546 111.706 C 203.725 111.798 203.885 111.921 204.02 112.069 C 204.083 112.137 204.138 112.212 204.186 112.291 C 204.277 112.431 204.349 112.582 204.4 112.74 C 204.421 112.801 204.439 112.862 204.458 112.926 C 204.594 113.417 204.581 113.937 204.419 114.421 Z" fill="#FF9D00"/>
  <path fill-rule="evenodd" clip-rule="evenodd" d="M 196.769 79.202 L 196.769 78.884 C 196.769 51.744 174.775 29.743 147.634 29.743 C 120.493 29.743 98.491 51.745 98.491 78.884 L 98.491 78.99 C 98.489 79.061 98.489 79.131 98.491 79.202 C 98.494 79.308 98.495 79.413 98.494 79.519 L 98.497 79.753 L 98.499 79.836 C 98.499 79.875 98.5 79.913 98.502 79.952 C 98.504 80.014 98.505 80.076 98.505 80.138 L 98.512 80.39 L 98.522 80.686 L 98.526 80.784 L 98.539 81.09 L 98.539 81.105 C 98.544 81.225 98.55 81.344 98.556 81.464 L 98.557 81.473 C 98.563 81.595 98.57 81.717 98.578 81.84 C 98.584 81.953 98.59 82.066 98.599 82.178 L 98.6 82.198 C 98.606 82.295 98.612 82.392 98.62 82.489 L 98.622 82.515 L 98.643 82.795 L 98.645 82.813 C 98.649 82.868 98.653 82.922 98.658 82.975 C 98.697 83.442 98.742 83.91 98.793 84.376 L 98.797 84.405 L 98.836 84.748 L 98.88 85.108 L 98.913 85.352 L 98.928 85.467 C 98.962 85.732 99 85.996 99.04 86.259 L 99.042 86.277 L 99.081 86.526 C 99.266 87.711 99.495 88.89 99.768 90.059 L 99.771 90.074 L 99.792 90.161 L 99.851 90.411 L 99.887 90.367 C 101.314 88.662 103.36 87.722 105.65 87.722 C 107.485 87.722 109.368 88.329 111.254 89.525 C 112.506 90.32 113.89 91.728 115.314 93.499 C 116.631 91.669 118.478 90.452 120.591 90.12 C 120.993 90.057 121.401 90.025 121.808 90.024 C 126.63 90.024 129.534 94.209 130.632 97.973 C 131.174 99.245 133.786 105.036 137.726 108.954 C 143.715 114.937 145.214 121.111 142.25 127.722 L 142.26 127.722 C 142.462 127.745 142.665 127.765 142.869 127.784 C 142.99 127.796 143.111 127.808 143.233 127.818 L 143.276 127.822 L 143.543 127.845 L 143.79 127.864 C 144.024 127.882 144.26 127.899 144.496 127.914 L 144.683 127.925 L 144.832 127.934 L 144.924 127.939 L 145.214 127.954 L 145.293 127.957 L 145.597 127.971 L 145.935 127.984 L 146.207 127.992 L 146.253 127.993 C 146.31 127.996 146.368 127.998 146.426 127.998 L 146.488 128 C 146.87 128.009 147.252 128.013 147.635 128.012 L 148.041 128.012 L 148.331 128.009 C 148.402 128.006 148.473 128.006 148.545 128.006 L 148.658 128.006 L 148.755 128.003 C 148.794 128.002 148.832 128.001 148.871 128.001 L 148.987 128.001 L 149.215 127.995 L 149.557 127.983 L 149.934 127.966 C 150.043 127.963 150.15 127.957 150.258 127.952 L 150.374 127.944 L 150.546 127.935 L 150.648 127.929 L 150.724 127.924 L 151.072 127.902 L 151.42 127.876 L 151.736 127.851 L 151.957 127.832 L 152.201 127.81 C 152.608 127.774 153.014 127.731 153.42 127.682 L 153.697 127.649 C 150.78 121.066 152.29 114.919 158.254 108.96 C 162.185 105.032 164.798 99.24 165.342 97.968 C 166.44 94.204 169.343 90.02 174.166 90.02 C 174.574 90.02 174.981 90.052 175.384 90.116 C 177.495 90.448 179.342 91.664 180.661 93.494 C 182.086 91.724 183.469 90.315 184.721 89.52 C 186.607 88.324 188.492 87.717 190.325 87.717 C 192.345 87.717 194.177 88.45 195.56 89.794 C 195.585 89.685 195.61 89.575 195.634 89.465 L 195.704 89.137 C 195.73 89.017 195.755 88.897 195.779 88.777 C 195.822 88.565 195.864 88.353 195.905 88.139 C 195.948 87.917 195.989 87.694 196.028 87.471 L 196.048 87.35 C 196.06 87.279 196.072 87.208 196.086 87.136 C 196.108 87.024 196.126 86.913 196.144 86.8 L 196.151 86.757 L 196.197 86.463 L 196.242 86.166 L 196.242 86.163 C 196.276 85.943 196.307 85.723 196.336 85.504 L 196.343 85.449 L 196.384 85.139 L 196.417 84.875 L 196.475 84.353 L 196.498 84.144 L 196.504 84.087 C 196.516 83.974 196.528 83.861 196.538 83.748 L 196.538 83.739 C 196.547 83.65 196.556 83.56 196.563 83.469 C 196.609 82.958 196.648 82.445 196.68 81.929 C 196.685 81.845 196.69 81.76 196.695 81.675 L 196.695 81.671 L 196.712 81.353 L 196.716 81.282 C 196.726 81.066 196.735 80.851 196.742 80.636 L 196.742 80.628 L 196.746 80.544 C 196.749 80.473 196.751 80.402 196.751 80.33 L 196.753 80.302 C 196.755 80.235 196.758 80.166 196.758 80.098 L 196.76 80.04 C 196.762 79.972 196.764 79.904 196.764 79.836 L 196.765 79.779 C 196.767 79.692 196.769 79.605 196.769 79.519 L 196.769 79.202 Z M 135.445 128.293 C 139.337 122.586 139.061 118.302 133.721 112.965 C 128.381 107.628 125.273 99.824 125.273 99.824 C 125.273 99.824 124.113 95.29 121.467 95.707 C 118.822 96.123 116.881 102.897 122.421 107.044 C 127.96 111.191 121.318 114.002 119.186 110.111 C 117.054 106.219 111.233 96.216 108.215 94.302 C 105.197 92.389 103.075 93.461 103.786 97.405 C 104.14 99.363 107.426 102.704 110.496 105.826 C 113.612 108.993 116.504 111.934 115.886 112.975 C 114.658 115.041 110.335 110.546 110.335 110.546 C 110.335 110.546 96.798 98.227 93.852 101.438 C 91.135 104.396 95.324 106.912 101.78 110.789 C 102.329 111.118 102.894 111.458 103.473 111.808 C 110.86 116.28 111.434 117.459 110.385 119.151 C 109.998 119.776 107.526 118.292 104.485 116.466 C 99.3 113.353 92.465 109.249 91.499 112.923 C 90.664 116.102 95.693 118.05 100.254 119.817 C 104.054 121.289 107.53 122.635 107.018 124.462 C 106.488 126.357 103.617 124.777 100.477 123.049 C 96.953 121.11 93.092 118.986 91.828 121.383 C 89.44 125.915 108.305 131.251 108.46 131.291 C 114.556 132.872 130.035 136.222 135.445 128.293 Z M 160.517 128.293 C 156.625 122.586 156.901 118.302 162.241 112.965 C 167.581 107.628 170.689 99.824 170.689 99.824 C 170.689 99.824 171.849 95.29 174.495 95.707 C 177.14 96.123 179.081 102.897 173.542 107.044 C 168.002 111.191 174.644 114.002 176.776 110.111 C 178.908 106.219 184.726 96.216 187.743 94.302 C 190.761 92.389 192.885 93.461 192.173 97.405 C 191.82 99.363 188.533 102.704 185.463 105.826 C 182.348 108.993 179.455 111.934 180.073 112.975 C 181.301 115.041 185.627 110.544 185.627 110.544 C 185.627 110.544 199.163 98.225 202.111 101.436 C 204.827 104.394 200.638 106.91 194.181 110.787 C 193.616 111.126 193.052 111.466 192.489 111.806 C 185.102 116.278 184.528 117.457 185.576 119.148 C 185.963 119.774 188.436 118.289 191.476 116.464 C 196.661 113.351 203.497 109.247 204.463 112.921 C 205.299 116.1 200.269 118.048 195.707 119.815 C 191.908 121.287 188.432 122.633 188.943 124.46 C 189.472 126.354 192.343 124.774 195.482 123.047 C 199.006 121.107 202.868 118.982 204.131 121.381 C 206.52 125.916 187.652 131.247 187.5 131.286 C 181.404 132.872 165.925 136.222 160.517 128.293 Z" fill="#FFD21E"/>
  <path fill-rule="evenodd" clip-rule="evenodd" d="M 163.593 65.508 C 164.359 65.779 164.929 66.604 165.472 67.389 C 166.204 68.45 166.886 69.438 167.933 68.882 C 169.168 68.225 170.18 67.217 170.841 65.985 C 171.503 64.753 171.785 63.353 171.652 61.961 C 171.552 60.92 171.222 59.914 170.687 59.016 C 170.151 58.118 169.423 57.35 168.555 56.767 C 167.687 56.184 166.7 55.801 165.667 55.646 C 164.632 55.49 163.577 55.566 162.576 55.867 C 161.574 56.169 160.653 56.688 159.877 57.389 C 159.101 58.089 158.489 58.953 158.087 59.918 C 157.685 60.883 157.502 61.925 157.55 62.97 C 157.6 64.014 157.879 65.034 158.37 65.958 C 158.855 66.87 159.931 66.44 161.067 65.985 C 161.958 65.629 162.886 65.258 163.593 65.508 Z M 130.28 65.508 C 129.513 65.779 128.943 66.605 128.401 67.389 C 127.668 68.451 126.985 69.438 125.94 68.882 C 124.387 68.059 123.196 66.688 122.599 65.036 C 122.003 63.383 122.043 61.568 122.712 59.943 C 123.38 58.318 124.63 57.001 126.218 56.248 C 127.805 55.494 129.616 55.359 131.298 55.869 C 132.637 56.272 133.826 57.063 134.716 58.142 C 135.605 59.221 136.154 60.539 136.295 61.93 C 136.435 63.321 136.16 64.723 135.503 65.958 C 135.018 66.87 133.941 66.44 132.805 65.986 C 131.914 65.629 130.988 65.258 130.28 65.508 Z M 158.439 95.823 C 163.719 91.664 165.659 84.872 165.659 80.688 C 165.659 77.381 163.434 78.422 159.872 80.186 L 159.671 80.285 C 156.402 81.904 152.05 84.06 147.272 84.06 C 142.494 84.06 138.141 81.904 134.872 80.284 C 131.195 78.463 128.889 77.32 128.889 80.689 C 128.889 85.005 130.952 92.092 136.615 96.209 C 137.363 94.692 138.415 93.346 139.707 92.254 C 140.998 91.162 142.501 90.348 144.121 89.863 C 144.687 89.694 145.269 90.668 145.865 91.664 C 146.44 92.625 147.028 93.608 147.626 93.608 C 148.263 93.608 148.889 92.64 149.501 91.694 C 150.139 90.705 150.762 89.742 151.365 89.935 C 154.396 90.908 156.932 93.019 158.439 95.823 Z" fill="#32343D"/>
  <path d="M 158.438 95.823 C 155.688 97.99 152.033 99.443 147.273 99.443 C 142.8 99.443 139.303 98.16 136.615 96.208 C 137.363 94.691 138.415 93.344 139.707 92.253 C 140.998 91.161 142.501 90.347 144.121 89.862 C 145.231 89.531 146.408 93.608 147.626 93.608 C 148.929 93.608 150.185 89.558 151.365 89.934 C 154.396 90.908 156.931 93.019 158.438 95.823 Z" fill="#FF323D"/>
  <path fill-rule="evenodd" clip-rule="evenodd" d="M 117.653 71.392 C 117.025 71.812 116.303 72.071 115.55 72.144 C 114.798 72.219 114.039 72.106 113.341 71.816 C 112.783 71.586 112.276 71.248 111.849 70.82 C 111.422 70.394 111.083 69.887 110.853 69.328 C 110.564 68.63 110.451 67.871 110.526 67.119 C 110.6 66.367 110.859 65.645 111.279 65.016 C 111.784 64.26 112.502 63.671 113.342 63.323 C 114.182 62.975 115.106 62.884 115.998 63.061 C 116.89 63.239 117.708 63.677 118.351 64.32 C 118.994 64.963 119.431 65.783 119.608 66.674 C 119.785 67.566 119.694 68.49 119.346 69.33 C 118.999 70.169 118.409 70.886 117.653 71.392 Z M 183.413 71.392 C 182.785 71.812 182.062 72.071 181.31 72.144 C 180.557 72.219 179.799 72.106 179.1 71.816 C 178.542 71.585 178.035 71.248 177.608 70.82 C 177.182 70.394 176.843 69.887 176.612 69.328 C 176.324 68.63 176.212 67.871 176.286 67.119 C 176.36 66.367 176.619 65.645 177.038 65.016 C 177.416 64.451 177.914 63.977 178.497 63.627 C 179.08 63.278 179.733 63.062 180.41 62.995 C 181.087 62.929 181.769 63.013 182.409 63.243 C 183.049 63.472 183.63 63.84 184.11 64.321 C 184.753 64.964 185.191 65.783 185.368 66.674 C 185.546 67.566 185.454 68.49 185.106 69.33 C 184.758 70.169 184.169 70.886 183.413 71.392 Z" fill="#FFAD03"/>
  <text style="fill: rgb(0, 0, 0); font-family: Arial, sans-serif; font-size: 100px; font-weight: 700; text-transform: lowercase; white-space: pre;" x="254.968" y="115.676">Tokenizers.js</text>
</svg>